<mxfile host="app.diagrams.net" modified="2022-12-13T06:36:34.849Z" agent="5.0 (Windows NT 10.0; Win64; x64) AppleWebKit/537.36 (KHTML, like Gecko) Chrome/108.0.0.0 Safari/537.36" etag="RuLPWuMkWiCiLSt3UtdI" version="20.6.2" type="github">
  <diagram id="eLIVxNQiJWbGcrF2bT0w" name="페이지-1">
    <mxGraphModel dx="546" dy="516" grid="1" gridSize="10" guides="1" tooltips="1" connect="1" arrows="1" fold="1" page="1" pageScale="1" pageWidth="827" pageHeight="1169" math="0" shadow="0">
      <root>
        <mxCell id="0" />
        <mxCell id="1" parent="0" />
        <mxCell id="WZCAYHtos3Cy1ELbFCDV-2" value="소사본동 행정복지센터" style="text;strokeColor=none;fillColor=none;align=left;verticalAlign=middle;whiteSpace=wrap;rounded=0;fontSize=16;fontStyle=1;labelBorderColor=none;labelBackgroundColor=none;html=1;" parent="1" vertex="1">
          <mxGeometry x="40" y="40" width="200" height="40" as="geometry" />
        </mxCell>
        <mxCell id="WZCAYHtos3Cy1ELbFCDV-12" value="&lt;span style=&quot;font-weight: normal;&quot;&gt;5층&lt;/span&gt;" style="swimlane;whiteSpace=wrap;html=1;fontSize=16;fillColor=#f5f5f5;fontColor=#333333;strokeColor=#666666;horizontal=0;" parent="1" vertex="1">
          <mxGeometry x="40" y="80" width="540" height="160" as="geometry" />
        </mxCell>
        <mxCell id="WZCAYHtos3Cy1ELbFCDV-10" value="마을자치과" style="rounded=1;whiteSpace=wrap;html=1;fontSize=16;fillColor=#d5e8d4;strokeColor=#82b366;strokeWidth=2;glass=0;sketch=0;" parent="WZCAYHtos3Cy1ELbFCDV-12" vertex="1">
          <mxGeometry x="40" y="20" width="120" height="60" as="geometry" />
        </mxCell>
        <mxCell id="WZCAYHtos3Cy1ELbFCDV-13" value="복지과" style="rounded=1;whiteSpace=wrap;html=1;fontSize=16;fillColor=#ffe6cc;strokeColor=#d79b00;strokeWidth=2;glass=0;sketch=0;" parent="WZCAYHtos3Cy1ELbFCDV-12" vertex="1">
          <mxGeometry x="180" y="20" width="120" height="60" as="geometry" />
        </mxCell>
        <mxCell id="WZCAYHtos3Cy1ELbFCDV-14" value="생활안전과" style="rounded=1;whiteSpace=wrap;html=1;fontSize=16;fillColor=#dae8fc;strokeColor=#6c8ebf;strokeWidth=2;perimeterSpacing=0;glass=0;sketch=0;shadow=0;" parent="WZCAYHtos3Cy1ELbFCDV-12" vertex="1">
          <mxGeometry x="320" y="20" width="120" height="60" as="geometry" />
        </mxCell>
        <mxCell id="WZCAYHtos3Cy1ELbFCDV-15" value="창고&lt;br&gt;6182" style="rounded=0;whiteSpace=wrap;html=1;fontSize=16;strokeWidth=1;sketch=1;" parent="WZCAYHtos3Cy1ELbFCDV-12" vertex="1">
          <mxGeometry x="140" y="100" width="80" height="40" as="geometry" />
        </mxCell>
        <mxCell id="WZCAYHtos3Cy1ELbFCDV-53" value="게시판" style="rounded=0;whiteSpace=wrap;html=1;fontSize=16;fillColor=#bac8d3;strokeColor=#23445d;sketch=1;perimeterSpacing=0;curveFitting=0.95;hachureAngle=-41;gradientColor=none;fillStyle=dashed;" parent="WZCAYHtos3Cy1ELbFCDV-12" vertex="1">
          <mxGeometry x="40" y="100" width="80" height="40" as="geometry" />
        </mxCell>
        <mxCell id="vdcQb1Do8qtpe8zLqnzl-1" value="주민자치회실" style="rounded=0;whiteSpace=wrap;html=1;fontSize=16;strokeWidth=1;sketch=0;fillColor=#f5f5f5;fontColor=#333333;strokeColor=#666666;dashed=1;" parent="WZCAYHtos3Cy1ELbFCDV-12" vertex="1">
          <mxGeometry x="240" y="100" width="80" height="40" as="geometry" />
        </mxCell>
        <mxCell id="vdcQb1Do8qtpe8zLqnzl-2" value="지역대" style="rounded=0;whiteSpace=wrap;html=1;fontSize=16;strokeWidth=1;sketch=0;fillColor=#f5f5f5;fontColor=#333333;strokeColor=#666666;dashed=1;" parent="WZCAYHtos3Cy1ELbFCDV-12" vertex="1">
          <mxGeometry x="340" y="100" width="80" height="40" as="geometry" />
        </mxCell>
        <mxCell id="vdcQb1Do8qtpe8zLqnzl-3" value="기동대" style="rounded=0;whiteSpace=wrap;html=1;fontSize=16;strokeWidth=1;sketch=0;fillColor=#f5f5f5;fontColor=#333333;strokeColor=#666666;dashed=1;" parent="WZCAYHtos3Cy1ELbFCDV-12" vertex="1">
          <mxGeometry x="440" y="100" width="80" height="40" as="geometry" />
        </mxCell>
        <mxCell id="WZCAYHtos3Cy1ELbFCDV-17" value="&lt;span style=&quot;font-weight: normal;&quot;&gt;4층&lt;/span&gt;" style="swimlane;whiteSpace=wrap;html=1;fontSize=16;fillColor=#f5f5f5;fontColor=#333333;strokeColor=#666666;horizontal=0;" parent="1" vertex="1">
          <mxGeometry x="40" y="260" width="320" height="100" as="geometry" />
        </mxCell>
        <mxCell id="WZCAYHtos3Cy1ELbFCDV-18" value="사회복지관" style="rounded=0;whiteSpace=wrap;html=1;fontSize=15;fillColor=#f5f5f5;fontColor=#333333;strokeColor=#666666;dashed=1;" parent="WZCAYHtos3Cy1ELbFCDV-17" vertex="1">
          <mxGeometry x="40" y="20" width="80" height="40" as="geometry" />
        </mxCell>
        <mxCell id="WZCAYHtos3Cy1ELbFCDV-19" value="아동청소년&lt;br style=&quot;font-size: 10px;&quot;&gt;정신건강&lt;br style=&quot;font-size: 10px;&quot;&gt;복지센터" style="rounded=0;whiteSpace=wrap;html=1;fontSize=10;fillColor=#f5f5f5;fontColor=#333333;strokeColor=#666666;dashed=1;" parent="WZCAYHtos3Cy1ELbFCDV-17" vertex="1">
          <mxGeometry x="140" y="20" width="80" height="40" as="geometry" />
        </mxCell>
        <mxCell id="WZCAYHtos3Cy1ELbFCDV-23" value="&lt;span style=&quot;font-weight: normal;&quot;&gt;3층&lt;/span&gt;" style="swimlane;whiteSpace=wrap;html=1;fontSize=16;fillColor=#f5f5f5;fontColor=#333333;strokeColor=#666666;horizontal=0;" parent="1" vertex="1">
          <mxGeometry x="380" y="260" width="180" height="100" as="geometry" />
        </mxCell>
        <mxCell id="WZCAYHtos3Cy1ELbFCDV-24" value="소사노인복지관" style="rounded=1;whiteSpace=wrap;html=1;fontSize=14;dashed=1;fillColor=#f8cecc;strokeColor=#b85450;spacing=2;spacingTop=2;spacingBottom=2;spacingLeft=2;spacingRight=2;fontFamily=Nanum Gothic;fontSource=https%3A%2F%2Ffonts.googleapis.com%2Fcss%3Ffamily%3DNanum%2BGothic;" parent="WZCAYHtos3Cy1ELbFCDV-23" vertex="1">
          <mxGeometry x="40" y="20" width="80" height="40" as="geometry" />
        </mxCell>
        <mxCell id="WZCAYHtos3Cy1ELbFCDV-29" value="&lt;span style=&quot;font-weight: normal;&quot;&gt;2층&lt;/span&gt;" style="swimlane;whiteSpace=wrap;html=1;fontSize=16;fillColor=#f5f5f5;fontColor=#333333;strokeColor=#666666;horizontal=0;" parent="1" vertex="1">
          <mxGeometry x="40" y="380" width="600" height="160" as="geometry" />
        </mxCell>
        <mxCell id="WZCAYHtos3Cy1ELbFCDV-30" value="민원위생과" style="rounded=1;whiteSpace=wrap;html=1;fontSize=16;fillColor=#fff2cc;strokeColor=#d6b656;strokeWidth=2;glass=0;sketch=0;" parent="WZCAYHtos3Cy1ELbFCDV-29" vertex="1">
          <mxGeometry x="40" y="20" width="120" height="60" as="geometry" />
        </mxCell>
        <mxCell id="WZCAYHtos3Cy1ELbFCDV-31" value="환경건축과" style="rounded=1;whiteSpace=wrap;html=1;fontSize=16;fillColor=#e1d5e7;strokeColor=#9673a6;strokeWidth=2;glass=0;sketch=0;" parent="WZCAYHtos3Cy1ELbFCDV-29" vertex="1">
          <mxGeometry x="180" y="20" width="120" height="60" as="geometry" />
        </mxCell>
        <mxCell id="WZCAYHtos3Cy1ELbFCDV-32" value="보건소&lt;br&gt;(사무실)" style="rounded=0;whiteSpace=wrap;html=1;fontSize=16;fillColor=#f5f5f5;strokeColor=#666666;fontColor=#333333;dashed=1;" parent="WZCAYHtos3Cy1ELbFCDV-29" vertex="1">
          <mxGeometry x="320" y="20" width="120" height="60" as="geometry" />
        </mxCell>
        <mxCell id="WZCAYHtos3Cy1ELbFCDV-33" value="어린이집" style="rounded=0;whiteSpace=wrap;html=1;fontSize=16;fillColor=#f5f5f5;strokeColor=#666666;fontColor=#333333;dashed=1;" parent="WZCAYHtos3Cy1ELbFCDV-29" vertex="1">
          <mxGeometry x="460" y="20" width="120" height="60" as="geometry" />
        </mxCell>
        <mxCell id="WZCAYHtos3Cy1ELbFCDV-50" value="게시판" style="rounded=0;whiteSpace=wrap;html=1;fontSize=16;fillColor=#bac8d3;strokeColor=#23445d;sketch=1;curveFitting=0.95;hachureAngle=-41;gradientColor=none;fillStyle=dashed;" parent="WZCAYHtos3Cy1ELbFCDV-29" vertex="1">
          <mxGeometry x="40" y="100" width="80" height="40" as="geometry" />
        </mxCell>
        <mxCell id="WZCAYHtos3Cy1ELbFCDV-35" value="&lt;span style=&quot;font-weight: normal;&quot;&gt;1층&lt;/span&gt;" style="swimlane;whiteSpace=wrap;html=1;fontSize=16;rounded=0;sketch=0;shadow=0;glass=0;swimlaneLine=1;fillColor=#fff2cc;strokeColor=#000000;horizontal=0;" parent="1" vertex="1">
          <mxGeometry x="40" y="560" width="460" height="160" as="geometry" />
        </mxCell>
        <mxCell id="WZCAYHtos3Cy1ELbFCDV-37" value="100세 건강실" style="rounded=0;whiteSpace=wrap;html=1;fontSize=16;fillColor=#f5f5f5;strokeColor=#666666;fontColor=#333333;dashed=1;" parent="WZCAYHtos3Cy1ELbFCDV-35" vertex="1">
          <mxGeometry x="40" y="20" width="120" height="60" as="geometry" />
        </mxCell>
        <mxCell id="WZCAYHtos3Cy1ELbFCDV-38" value="어린이 건강체험관" style="rounded=0;whiteSpace=wrap;html=1;fontSize=16;fillColor=#f5f5f5;strokeColor=#666666;fontColor=#333333;dashed=1;" parent="WZCAYHtos3Cy1ELbFCDV-35" vertex="1">
          <mxGeometry x="180" y="20" width="120" height="60" as="geometry" />
        </mxCell>
        <mxCell id="WZCAYHtos3Cy1ELbFCDV-49" value="게시판" style="rounded=0;whiteSpace=wrap;html=1;fontSize=16;fillColor=#bac8d3;strokeColor=#23445d;sketch=1;curveFitting=0.95;hachureAngle=-41;gradientColor=none;fillStyle=dashed;" parent="WZCAYHtos3Cy1ELbFCDV-35" vertex="1">
          <mxGeometry x="40" y="100" width="120" height="40" as="geometry" />
        </mxCell>
        <mxCell id="WZCAYHtos3Cy1ELbFCDV-36" value="보건소&lt;br&gt;(민원실)" style="rounded=0;whiteSpace=wrap;html=1;fontSize=16;fillColor=#f5f5f5;strokeColor=#666666;fontColor=#333333;dashed=1;" parent="WZCAYHtos3Cy1ELbFCDV-35" vertex="1">
          <mxGeometry x="320" y="20" width="120" height="60" as="geometry" />
        </mxCell>
        <mxCell id="bqHIdkEocq06oduKSD-m-1" value="청사 민원실&lt;br&gt;(재산활용과)" style="rounded=1;whiteSpace=wrap;html=1;fontSize=14;dashed=1;fillColor=#f8cecc;strokeColor=#b85450;spacing=2;spacingTop=2;spacingBottom=2;spacingLeft=2;spacingRight=2;fontFamily=Nanum Gothic;fontSource=https%3A%2F%2Ffonts.googleapis.com%2Fcss%3Ffamily%3DNanum%2BGothic;" vertex="1" parent="WZCAYHtos3Cy1ELbFCDV-35">
          <mxGeometry x="180" y="100" width="90" height="40" as="geometry" />
        </mxCell>
        <mxCell id="WZCAYHtos3Cy1ELbFCDV-41" value="&lt;span style=&quot;font-weight: normal;&quot;&gt;지하 1층&lt;/span&gt;" style="swimlane;whiteSpace=wrap;html=1;fontSize=16;fillColor=#f5f5f5;fontColor=#333333;strokeColor=#666666;horizontal=0;" parent="1" vertex="1">
          <mxGeometry x="40" y="740" width="320" height="100" as="geometry" />
        </mxCell>
        <mxCell id="WZCAYHtos3Cy1ELbFCDV-42" value="생활문화센터" style="rounded=0;whiteSpace=wrap;html=1;fontSize=16;fillColor=#f5f5f5;strokeColor=#666666;fontColor=#333333;dashed=1;" parent="WZCAYHtos3Cy1ELbFCDV-41" vertex="1">
          <mxGeometry x="40" y="20" width="120" height="60" as="geometry" />
        </mxCell>
        <mxCell id="WZCAYHtos3Cy1ELbFCDV-43" value="노인복지관 식당" style="rounded=0;whiteSpace=wrap;html=1;fontSize=16;fillColor=#f5f5f5;strokeColor=#666666;fontColor=#333333;dashed=1;" parent="WZCAYHtos3Cy1ELbFCDV-41" vertex="1">
          <mxGeometry x="180" y="20" width="120" height="60" as="geometry" />
        </mxCell>
        <mxCell id="WZCAYHtos3Cy1ELbFCDV-45" value="&lt;span style=&quot;font-weight: normal;&quot;&gt;지하 2층&lt;br&gt;&lt;/span&gt;" style="swimlane;whiteSpace=wrap;html=1;fontSize=16;fillColor=#f5f5f5;fontColor=#333333;strokeColor=#666666;horizontal=0;" parent="1" vertex="1">
          <mxGeometry x="380" y="740" width="180" height="100" as="geometry" />
        </mxCell>
        <mxCell id="WZCAYHtos3Cy1ELbFCDV-46" value="기록관 서고" style="rounded=0;whiteSpace=wrap;html=1;fontSize=16;fillColor=#f5f5f5;strokeColor=#666666;fontColor=#333333;dashed=1;" parent="WZCAYHtos3Cy1ELbFCDV-45" vertex="1">
          <mxGeometry x="40" y="20" width="120" height="60" as="geometry" />
        </mxCell>
      </root>
    </mxGraphModel>
  </diagram>
</mxfile>
